<svg version="1.1" id="Layer_1" xmlns="http://www.w3.org/2000/svg" xmlns:xlink="http://www.w3.org/1999/xlink" x="0px" y="0px"
	 width="100%" viewBox="0 0 560 560" enable-background="new 0 0 560 560" xml:space="preserve">
<path fill="#000000" opacity="1.000000" stroke="none" 
	d="
M350.306335,124.550903 
	C350.038025,127.513229 352.396545,129.318344 353.380493,131.026337 
	C357.644287,138.427582 353.723785,145.708038 354.307159,152.941116 
	C354.584076,156.373901 351.023529,156.922272 348.087097,157.362671 
	C342.940216,158.134552 337.772186,158.858017 335.807220,165.001007 
	C333.549805,172.058365 335.405823,174.335403 342.735199,173.268616 
	C347.837860,172.525925 352.953705,171.841797 358.082672,171.317932 
	C374.915253,169.598755 389.817627,162.680313 403.767914,153.727921 
	C416.103210,145.811905 429.694763,140.905716 443.166718,135.619003 
	C444.534149,135.082397 446.079498,134.728409 447.538879,134.739532 
	C460.167908,134.835892 472.863037,133.733932 485.350677,136.662842 
	C486.301361,136.885818 487.360962,136.764053 488.225616,138.094131 
	C485.960571,141.273972 483.266693,143.140457 478.888672,142.510727 
	C473.762726,141.773422 468.581787,141.789780 463.576172,143.582779 
	C460.390564,144.723816 459.646790,146.264572 462.278107,148.953979 
	C464.003296,150.717270 467.475098,152.882812 465.143890,155.334763 
	C462.984222,157.606277 461.059601,153.783615 459.077728,152.656601 
	C455.479736,150.610596 451.530548,149.162079 448.425598,146.230469 
	C446.632660,144.537628 444.690430,145.731979 442.865417,146.597260 
	C433.628754,150.976425 425.626648,157.334534 417.057556,162.775864 
	C398.381592,174.635071 378.600586,183.899841 357.385101,190.310211 
	C344.753143,194.127014 347.395081,193.837341 349.980133,204.487946 
	C350.686432,207.397873 351.410126,210.305542 352.216919,213.188751 
	C354.530640,221.457382 353.434784,228.982758 347.625122,235.602020 
	C346.653229,236.709320 345.719635,238.036240 345.309082,239.421890 
	C340.352997,256.149170 328.040314,266.751282 314.484955,276.176910 
	C310.992584,278.605286 310.178986,280.603851 311.573303,284.741119 
	C319.124634,307.147614 324.592499,330.146698 330.534790,353.013275 
	C332.875763,362.021698 335.922363,370.856842 338.904724,379.684082 
	C340.308075,383.837708 338.799927,385.286438 334.870544,385.294312 
	C332.056183,385.299957 329.241821,385.295410 327.040924,385.295410 
	C325.620178,386.184967 325.448029,386.997742 325.527771,387.845764 
	C325.729309,389.988159 324.558685,390.869354 322.645905,391.120728 
	C320.849396,391.356842 319.564819,391.005371 318.620880,389.098114 
	C317.465729,386.764130 316.907562,383.290253 312.503601,384.425110 
	C312.450165,388.680542 309.539948,392.067993 308.534515,396.294556 
	C307.546570,400.447540 302.710785,399.593445 299.494354,399.578674 
	C296.380585,399.564423 297.246094,396.220428 297.427460,394.364685 
	C297.709534,391.478882 297.068481,388.954224 296.188843,385.737305 
	C293.771423,393.247345 293.769409,393.261932 286.166809,392.205200 
	C284.520996,391.976410 282.903992,391.541687 281.258728,391.307037 
	C278.371277,390.895233 276.736664,391.669312 276.176086,395.058838 
	C271.555115,422.999908 271.835205,450.633820 279.504852,478.143829 
	C283.210907,491.436859 282.443451,505.199066 280.859833,518.817627 
	C280.208008,524.423523 279.594604,530.065552 277.844299,535.474548 
	C277.233490,537.362244 276.569946,539.550415 274.314209,539.960999 
	C271.735504,540.430298 270.449341,538.303528 269.315491,536.492554 
	C267.079254,532.920715 265.539764,529.093872 265.648285,524.744446 
	C265.723083,521.747314 265.656006,518.745667 265.610443,515.746704 
	C265.514557,509.432678 262.834473,505.143494 256.613678,502.853912 
	C248.508560,499.870819 247.208725,491.824249 254.194656,486.658295 
	C259.712524,482.577942 260.560394,477.680939 258.936005,471.739502 
	C255.425598,458.899597 252.133118,445.989197 248.196335,433.279572 
	C243.173615,417.063904 242.851654,400.883759 247.275726,384.591278 
	C249.454453,376.567719 250.355988,368.556396 247.495621,360.602142 
	C245.273026,354.421509 245.362335,347.889557 244.035004,341.578400 
	C243.306671,338.115356 241.682053,335.799988 238.603867,334.366760 
	C233.380508,331.934723 228.140121,329.539246 222.582901,326.979156 
	C224.373154,324.044556 225.873306,321.585510 227.610275,318.738251 
	C223.779572,318.576202 222.431000,322.582825 218.956223,322.307465 
	C217.437149,319.966064 218.254211,317.164032 219.139679,315.263824 
	C221.175354,310.895264 217.070358,306.978180 218.936417,302.668976 
	C219.497360,301.373566 217.042908,300.627197 215.692261,300.130615 
	C210.957001,298.389709 206.819397,295.568420 202.750000,292.740295 
	C197.241196,288.911774 196.756226,285.379761 198.526260,278.882782 
	C199.859268,273.989929 200.451797,268.747803 197.506653,263.941284 
	C195.543457,260.737305 194.124741,257.264984 195.036560,253.496078 
	C197.106018,244.941971 192.891983,238.143814 188.547989,231.760254 
	C186.129059,228.205597 185.445023,224.427750 184.622253,220.649689 
	C184.087402,218.193756 185.838882,216.209808 188.952805,216.789536 
	C190.262665,217.033401 191.556366,217.367447 192.869293,217.590591 
	C193.901962,217.766129 194.935043,217.682190 195.348328,216.503113 
	C195.795837,215.226471 195.389572,214.025375 194.142960,213.611420 
	C191.946075,212.881927 189.612488,211.135406 187.695404,214.510422 
	C185.890015,211.954453 184.831238,209.713898 182.097839,208.973648 
	C179.920914,208.384109 180.238846,206.242813 180.994064,204.775085 
	C184.814590,197.350159 184.162369,190.733017 178.642441,184.222275 
	C176.228607,181.375153 174.759888,177.609299 173.321686,174.073654 
	C168.260895,161.632523 158.291870,153.075562 149.556213,143.531403 
	C145.600616,139.209702 142.402496,134.373444 139.440704,129.314194 
	C131.648895,116.004448 121.402191,104.542969 111.159973,93.154030 
	C106.979591,88.505615 104.514389,83.335732 102.706123,77.546715 
	C100.671150,71.031898 98.379280,64.594818 97.067986,57.880363 
	C96.581055,55.387062 96.306999,52.688698 98.888298,51.132633 
	C101.291763,49.683765 103.719078,50.667362 105.990021,51.881950 
	C107.657227,52.773636 108.794815,54.200615 109.885178,55.688511 
	C113.430069,60.525818 116.936844,65.392471 120.562202,70.168961 
	C123.740509,74.356468 125.965515,78.772675 126.508606,84.189873 
	C127.046539,89.555542 130.819916,93.460861 134.211594,97.354347 
	C143.563217,108.089569 154.567871,117.031761 165.691284,125.796547 
	C176.160919,134.046188 184.795319,143.833145 191.853561,155.093201 
	C193.504883,157.727554 194.880585,160.658188 198.378510,161.621536 
	C199.341553,161.886780 200.180847,163.096863 200.789673,164.055786 
	C202.347351,166.509201 202.307251,170.012115 207.249603,169.197083 
	C212.044754,168.406342 211.618805,164.963348 212.892792,161.019958 
	C224.147705,166.673019 232.259567,176.192535 242.779907,182.843872 
	C243.810242,179.560181 240.352356,178.549820 240.678268,175.861923 
	C242.672791,176.103760 243.737701,177.649826 244.850464,178.892242 
	C251.184387,185.964203 257.686768,192.906769 263.649658,200.283127 
	C268.811951,206.669067 274.646088,212.332336 280.587799,217.916489 
	C285.134125,222.189255 291.458038,221.221008 296.787445,223.841003 
	C298.474487,219.911270 297.920990,216.634277 297.050507,213.500687 
	C295.178345,206.761246 293.392822,200.022354 292.497955,193.063538 
	C292.199524,190.742889 291.002563,188.704254 289.898376,186.623932 
	C274.205872,157.059555 261.375580,126.511398 257.574738,92.828011 
	C256.605835,84.241776 255.156784,75.709946 253.946320,67.150574 
	C253.709290,65.474525 253.364471,63.964752 251.876175,62.805481 
	C246.661026,58.743290 242.944641,53.383472 239.627869,47.790257 
	C237.245285,43.772446 234.123459,40.733822 230.013824,38.630375 
	C227.744614,37.468918 225.528885,36.273170 226.127701,32.883530 
	C229.560013,31.193619 232.373825,34.460541 235.948807,34.087978 
	C235.710114,31.153587 231.918671,30.142792 232.074081,26.168371 
	C237.418945,27.743065 241.909821,30.321056 245.190414,34.250469 
	C251.925888,42.318062 257.470245,51.276699 262.621338,60.418968 
	C265.691467,65.867874 265.676880,72.269951 266.779205,78.286842 
	C271.098145,101.860748 279.902588,123.875450 288.980072,145.922943 
	C293.495117,156.889236 302.749023,163.619461 308.335052,173.503311 
	C317.038055,164.887650 316.700287,157.013733 307.997650,150.157593 
	C300.670197,144.384842 296.963104,137.012512 298.506744,127.482506 
	C298.723938,126.141472 298.515991,124.914803 297.958740,123.616028 
	C295.379120,117.603783 296.148987,114.394081 301.035614,109.895058 
	C306.045868,105.282249 310.310150,104.275085 315.480927,107.136620 
	C317.588104,108.302742 319.192352,107.972801 321.089935,107.227272 
	C326.966400,104.918495 332.869415,105.605324 338.755188,107.186043 
	C340.902435,107.762718 343.344299,108.701538 343.813507,110.854408 
	C344.911072,115.890457 348.839447,119.426025 350.306335,124.550903 
z"/>
</svg>