<?xml version="1.0" encoding="utf-8"?>
<!-- Generator: Adobe Illustrator 24.1.1, SVG Export Plug-In . SVG Version: 6.00 Build 0)  -->
<svg version="1.1" id="Layer_1" xmlns="http://www.w3.org/2000/svg" xmlns:xlink="http://www.w3.org/1999/xlink" x="0px" y="0px"
	 viewBox="0 0 1920 1080" style="enable-background:new 0 0 1920 1080;" xml:space="preserve">
<style type="text/css">
	.st0{fill:#CFECFE;}
	.st1{fill:#FFFFFF;}
	.st2{fill:#A4DEF6;}
	.st3{fill:#38BAEC;}
	.st4{fill:#38BAEC;}
	.st5{fill:#055AAD; opacity: 0.3;}
</style>
<rect class="st0" width="1920" height="1080"/>
<g>
	<path class="st1" d="M1394.2,317.6c0,19.2-15.5,34.7-34.7,34.7c-12.3,0-23.1-6.4-29.3-16.1c-12.1,10-27.7,16.1-44.7,16.1
		c-12.3,0-23.8-3.2-33.8-8.7c-6.2,13.9-20.1,23.7-36.3,23.7c-17.2,0-31.8-10.9-37.3-26.2c-15.8,15.7-37.6,25.4-61.6,25.4
		c-3.9,0-7.7-0.3-11.5-0.8c7.3,10.9,11.5,23.9,11.5,37.9c0,37.8-30.6,68.4-68.4,68.4c-14.1,0-27.3-4.3-38.2-11.6
		c-10.7,22.7-33.8,38.5-60.5,38.5c-18.1,0-34.5-7.2-46.5-18.9c-4,62-55.3,111.2-118.2,111.8c0.1,1.7,0.2,3.4,0.2,5.2
		c0,37.1-30.1,67.2-67.2,67.2c-12.9,0-25-3.7-35.2-10c-6.1,6.2-14.6,10-24,10c-18.6,0-33.8-15-33.9-33.7
		c-12.8,20.2-35.4,33.7-61.1,33.7c-7.9,0-15.6-1.3-22.7-3.7c-12.6,26.1-39.2,44.1-70.1,44.1c-21.7,0-41.3-8.9-55.4-23.1
		c-29.9,53.4-87,89.5-152.5,89.5c-64.9,0-121.5-35.4-151.6-87.9c-14.4,6.1-30.3,9.5-47,9.5c-23.5,0-45.5-6.8-64-18.5v-203
		c18.5-11.7,40.5-18.5,64-18.5c26.9,0,51.7,8.9,71.7,23.8c31.8-33.7,76.9-54.6,126.9-54.6c22.8,0,44.6,4.4,64.5,12.3v-0.3
		c0-76.7,62.2-138.9,138.9-138.9c68.4,0,125.3,49.5,136.7,114.6c8.1-2.7,16.7-4.2,25.6-4.2c17.5,0,33.7,5.6,46.9,15.2
		c19.3-40.3,60.4-68.2,108.1-68.2c43.6,0,81.8,23.3,102.7,58.2c2.7-8,6.9-15.3,12.3-21.6c-1.9-7.2-3-14.7-3-22.4
		c0-47.6,38.6-86.1,86.1-86.1c18.3,0,35.2,5.7,49.2,15.4c-1-5.4-1.6-11-1.6-16.7c0-48.3,39.1-87.4,87.4-87.4s87.4,39.1,87.4,87.4
		c0,3.7-0.2,7.3-0.7,10.8c3.8-1.2,7.9-1.9,12.2-1.9c0.1,0,0.2,0,0.3,0c-0.2-1.9-0.3-3.8-0.3-5.8c0-38.7,31.4-70.1,70.1-70.1
		s70.1,31.4,70.1,70.1c0,0.3,0,0.6,0,0.9c1.3-0.1,2.6-0.2,3.9-0.2C1378.7,282.9,1394.2,298.4,1394.2,317.6z"/>
	<path class="st2" d="M1913.3,433.7c-2.6-18.1-18.1-32-36.9-32c-4.3,0-8.5,0.8-12.4,2.1c0.4-2.3,0.6-4.6,0.6-6.9
		c0-24.4-19.8-44.2-44.2-44.2c-2.3,0-4.6,0.2-6.8,0.5c8.3-13,13.1-28.5,13.1-45.1c0-46.3-37.5-83.8-83.8-83.8s-83.8,37.5-83.8,83.8
		c0,0.2,0,0.4,0,0.6c-1.9-0.4-3.9-0.6-5.9-0.6c-1.9,0-3.8,0.2-5.7,0.6c-5.2-21.7-23.9-38.2-46.8-40c0.1-1.5,0.1-2.9,0.1-4.4
		c0-60.1-48.8-108.9-108.9-108.9S1383,204.2,1383,264.3c0,6,0.5,11.9,1.4,17.7c-14.8-11.1-33.1-17.7-53.1-17.7
		c-32.6,0-61,17.6-76.4,43.9c-8.1,0.1-15.7,2-22.5,5.2l0,0c-4.4-34.9-34.1-61.8-70.1-61.8c-39,0-70.7,31.7-70.7,70.7
		c0,12.1,3,23.4,8.4,33.3l0,0c-6.1,2.3-11.5,6-15.9,10.6c-11-9.5-25.4-15.3-41.1-15.3c-26.1,0-48.4,15.9-57.9,38.6
		c-1.9-0.2-3.9-0.3-5.9-0.3c-27,0-49.1,20.8-51.3,47.2c-52.1,14-90.5,61.7-90.5,118.2v0.7c-3.8-0.5-7.7-0.7-11.6-0.7
		c-19.5,0-37.6,6.2-52.3,16.8c-15.3-10.6-33.9-16.8-53.9-16.8c-50.6,0-92,39.6-94.8,89.6c-4.3,1.6-8.4,3.6-12.3,5.8
		c-22.5-51.3-73.8-87.2-133.4-87.2c-80.4,0-145.6,65.2-145.6,145.6c0,8.3,0.7,16.5,2,24.4c-14-22.1-38.7-36.8-66.8-36.8
		c-3.7,0-7.4,0.3-11,0.8c0.3-3.5,0.4-7,0.4-10.6c0-78.7-63.8-142.5-142.5-142.5C68,543.6,25.9,567,0,602.9V1080h1920V437.8
		C1918,436,1915.8,434.6,1913.3,433.7z M347.8,772.4c0-0.5,0-0.9,0-1.4c0.2,0.5,0.5,1,0.7,1.5C348.2,772.4,348,772.4,347.8,772.4z"
		/>
	<path class="st3" d="M287.9,1080H0V973.7c6-2.8,12.6-4.3,19.7-4.3c25.6,0,46.4,20.8,46.4,46.4c0,3-0.3,6-0.9,8.8c0.2,0,0.4,0,0.6,0
		c5.4-23.5,26.5-41,51.6-41c22.3,0,41.3,13.7,49.1,33.2c31.9,5.1,57.7,28.6,66.1,59.3c7-5.6,15.9-8.9,25.5-8.9
		C269.9,1067.2,280.5,1072.1,287.9,1080z"/>
	<path class="st3" d="M1920,630.4V1080H298.1c13.1-32.1,44.7-54.7,81.6-54.7c13.8,0,26.9,3.2,38.5,8.8c5.5-22.3,25.7-38.7,49.6-38.7
		c7.5,0,14.7,1.6,21.2,4.6c3-13.5,10.3-25.4,20.4-34.2c-13.8-17.7-22-40-22-64.2c0-57.8,46.9-104.7,104.7-104.7
		c25.1,0,48.1,8.8,66.1,23.5c7.7-8,17.1-14.4,27.6-18.4c-2.9-8.7-4.4-18-4.4-27.7c0-48.9,39.6-88.5,88.5-88.5c7.6,0,14.9,1,21.9,2.8
		c-1.3-6.6-2-13.4-2-20.3c0-58.6,47.5-106.1,106.1-106.1c22.6,0,43.5,7.1,60.7,19.1c9.8-4.7,20.8-7.4,32.3-7.4
		c24.5,0,46.3,11.8,59.9,30.1c10.4-55.6,59.2-97.8,117.8-97.8c47.4,0,88.3,27.5,107.8,67.3c8.5-2.8,17.6-4.2,27.1-4.2
		c13.6,0,26.4,3.1,37.9,8.5c13.8-26.6,41.6-44.7,73.6-44.7c12.5,0,24.4,2.8,35,7.7c9.8-5,20.9-7.7,32.6-7.7
		c26.7,0,50.1,14.5,62.6,36c15.3-26.3,43.8-44,76.4-44c48.8,0,88.4,39.6,88.4,88.4c0,8.8-1.3,17.2-3.6,25.2
		c7.9-9.3,18.3-16.4,30.2-20.2c5.8-45.9,44.9-81.3,92.4-81.3C1878.3,537.3,1920,579,1920,630.4z"/>
	<path class="st4" d="M1920,885.4V1080H217.3c1.6-13.5,13.1-24,27.1-24c7.9,0,15.1,3.4,20,8.8c12.9-32,44.2-54.6,80.8-54.6
		c31.3,0,58.6,16.5,74,41.2c8.7-3.3,18-5.2,27.9-5.2c23.1,0,43.9,10.1,58.1,26.2c8.2-15.5,24.5-26.2,43.3-26.2c7.7,0,15,1.8,21.5,5
		c-4.4-8.9-6.9-18.9-6.9-29.5c0-36.4,29.5-66,65.9-66c15.4,0,29.6,5.3,40.9,14.2c-1.7-4.4-2.6-9.2-2.6-14.2
		c0-22,17.8-39.9,39.9-39.9l0,0c-0.2-20.9,7.6-41.9,23.6-57.9c31.5-31.5,82.5-31.5,114,0c8,8,14,17.4,18,27.3
		c7.5-28.9,33.8-50.3,65.1-50.3c1.4,0,2.8,0,4.2,0.1c9.8-26.8,35.5-45.9,65.6-45.9c6.6,0,13,0.9,19.1,2.6
		c1-44.4,37.3-80.1,81.9-80.1c21.8,0,41.7,8.5,56.3,22.5c7.2-2.2,14.9-3.4,22.9-3.4c8.1,0,15.9,1.2,23.2,3.5
		c7-2.2,14.4-3.5,22.1-3.5c19.2,0,36.6,7.5,49.6,19.7c14.6-12.3,33.5-19.7,54-19.7c33.4,0,62.2,19.4,75.8,47.5
		c17.6-10.6,38.2-16.7,60.1-16.7c24.5,0,47.3,7.6,66.1,20.5c16.9-27.4,47.3-45.6,81.8-45.6c42.3,0,78.2,27.3,91.1,65.2
		c9.3-7.9,21.3-12.6,34.5-12.6c26.1,0,47.8,18.8,52.4,43.6c0.3,0,0.6,0,0.9,0c4.2,0,8.4,0.2,12.5,0.7c12.5-11.5,29.2-18.5,47.5-18.5
		C1888.5,815,1920,846.5,1920,885.4z"/>
	<g>
		<g>
			<path class="st5" d="M623.3,550.4c0,0-11.3-46.7,12.4-50.8c0,0,14.5-30.4,53.2-37.4c0,0-64.9,10.1-61.1,34.1
				C627.8,496.3,604.8,502,623.3,550.4z"/>
			<path class="st5" d="M614.4,490c0,0,28.5,5.1,43.6,14.2C658,504.3,636,506.2,614.4,490z"/>
		</g>
	</g>
	<g>
		<g>
			<path class="st5" d="M438.1,581.6c0,0-11.3-46.7,12.4-50.8c0,0,14.5-30.4,53.2-37.4c0,0-64.9,10.1-61.1,34.1
				C442.5,527.5,419.6,533.2,438.1,581.6z"/>
			<path class="st5" d="M429.2,521.3c0,0,28.5,5.1,43.6,14.2C472.8,535.5,450.8,537.4,429.2,521.3z"/>
		</g>
	</g>
	<g>
		<g>
			<path class="st5" d="M521,400.6c0,0-11.3-46.7,12.4-50.8c0,0,14.5-30.4,53.2-37.4c0,0-64.9,10.1-61.1,34.1
				C525.5,346.5,502.5,352.2,521,400.6z"/>
			<path class="st5" d="M512.1,340.2c0,0,28.5,5.1,43.6,14.2C555.7,354.5,533.7,356.4,512.1,340.2z"/>
		</g>
	</g>
	<g>
		<g>
			<path class="st5" d="M188.8,584.1c0,0-11.3-46.7,12.4-50.8c0,0,14.5-30.4,53.2-37.4c0,0-64.9,10.1-61.1,34.1
				C193.3,530,170.3,535.7,188.8,584.1z"/>
			<path class="st5" d="M179.9,523.8c0,0,28.5,5.1,43.6,14.2C223.5,538,201.5,539.9,179.9,523.8z"/>
		</g>
	</g>
	<g>
		<g>
			<path class="st5" d="M309.6,444.7c0,0-11.3-46.7,12.4-50.8c0,0,14.5-30.4,53.2-37.4c0,0-64.9,10.1-61.1,34.1
				C314,390.6,291,396.3,309.6,444.7z"/>
			<path class="st5" d="M300.6,384.3c0,0,28.5,5.1,43.6,14.2C344.2,398.6,322.3,400.5,300.6,384.3z"/>
		</g>
	</g>
	<g>
		<g>
			<path class="st5" d="M125.6,271.5c0,0-11.3-46.7,12.4-50.8c0,0,14.5-30.4,53.2-37.4c0,0-64.9,10.1-61.1,34.1
				C130.1,217.4,107.1,223.1,125.6,271.5z"/>
			<path class="st5" d="M116.7,211.2c0,0,28.5,5.1,43.6,14.2C160.3,225.4,138.3,227.3,116.7,211.2z"/>
		</g>
	</g>
	<g>
		<g>
			<path class="st5" d="M765.4,199.5c0,0-11.3-46.7,12.4-50.8c0,0,14.5-30.4,53.2-37.4c0,0-64.9,10.1-61.1,34.1
				C769.9,145.4,746.9,151.1,765.4,199.5z"/>
			<path class="st5" d="M756.5,139.1c0,0,28.5,5.1,43.6,14.2C800.1,153.4,778.1,155.3,756.5,139.1z"/>
		</g>
	</g>
</g>
</svg>
